<svg>
  <symbol id="icon-close" viewBox="0 0 24 24" fill="none" xmlns="http://www.w3.org/2000/svg">
    <path d="M6.22566 4.81096C5.83513 4.42044 5.20197 4.42044 4.81144 4.81096C4.42092 5.20149 4.42092 5.83465 4.81144 6.22518L10.5862 11.9999L4.8115 17.7746C4.42098 18.1651 4.42098 18.7983 4.8115 19.1888C5.20203 19.5793 5.83519 19.5793 6.22571 19.1888L12.0004 13.4141L17.7751 19.1888C18.1656 19.5793 18.7988 19.5793 19.1893 19.1888C19.5798 18.7983 19.5798 18.1651 19.1893 17.7746L13.4146 11.9999L19.1894 6.22518C19.5799 5.83465 19.5799 5.20149 19.1894 4.81096C18.7989 4.42044 18.1657 4.42044 17.7752 4.81096L12.0004 10.5857L6.22566 4.81096Z" fill="currentColor"/>
  </symbol>

  <symbol id="icon-select" viewBox="0 0 24 24" fill="none" xmlns="http://www.w3.org/2000/svg">
    <path fill-rule="evenodd" clip-rule="evenodd" d="M4.4545 7.8295C4.89384 7.39017 5.60616 7.39017 6.0455 7.8295L12 13.784L17.9545 7.8295C18.3938 7.39017 19.1062 7.39017 19.5455 7.8295C19.9848 8.26884 19.9848 8.98116 19.5455 9.4205L12.7955 16.1705C12.3562 16.6098 11.6438 16.6098 11.2045 16.1705L4.4545 9.4205C4.01517 8.98116 4.01517 8.26884 4.4545 7.8295Z" fill="currentColor"/>
  </symbol>

  <symbol id="icon-message" viewBox="0 0 24 24" fill="none" xmlns="http://www.w3.org/2000/svg">
    <path d="M20 4H4C2.897 4 2 4.897 2 6V18C2 19.103 2.897 20 4 20H20C21.103 20 22 19.103 22 18V6C22 4.897 21.103 4 20 4ZM20 6V6.511L12 12.734L4 6.512V6H20ZM4 18V9.044L11.386 14.789C11.5611 14.9265 11.7773 15.0013 12 15.0013C12.2227 15.0013 12.4389 14.9265 12.614 14.789L20 9.044L20.002 18H4Z" fill="currentColor"/>
  </symbol>
</svg>