<svg>
  <symbol id="icon-close" viewBox="0 0 24 24" fill="none" xmlns="http://www.w3.org/2000/svg">
    <path d="M6.22566 4.81096C5.83513 4.42044 5.20197 4.42044 4.81144 4.81096C4.42092 5.20149 4.42092 5.83465 4.81144 6.22518L10.5862 11.9999L4.8115 17.7746C4.42098 18.1651 4.42098 18.7983 4.8115 19.1888C5.20203 19.5793 5.83519 19.5793 6.22571 19.1888L12.0004 13.4141L17.7751 19.1888C18.1656 19.5793 18.7988 19.5793 19.1893 19.1888C19.5798 18.7983 19.5798 18.1651 19.1893 17.7746L13.4146 11.9999L19.1894 6.22518C19.5799 5.83465 19.5799 5.20149 19.1894 4.81096C18.7989 4.42044 18.1657 4.42044 17.7752 4.81096L12.0004 10.5857L6.22566 4.81096Z" fill="currentColor"/>
  </symbol>
</svg>